#!OML:ASF I:\Actors\actors\Patient Classification 2\Patient 1\Session 1\actor1.ASF
:FULLY-SPECIFIED
:DEGREES
615
root -0.796642 18.6325 6.01037 -0.09611 0.193072 -0.389146
lowerback 3.02797 0.0444997 -1.80736
upperback -1.36102 -0.0167584 0.0600849
thorax -3.09674 0.0288509 1.07615
lowerneck -11.1181 -1.08787 -1.78438
upperneck 21.3759 -1.54189 1.72908
head 8.50678 -0.696671 0.717437
rclavicle 9.69075e-016 4.37326e-015
rhumerus -55.8302 -19.7996 -77.7429
rradius 43.5291
rwrist 4.30364
rhand -1.96208 -35.2131
rfingers 7.12502
rthumb 23.7098 -423.771
lclavicle 9.69075e-016 4.37326e-015
lhumerus -51.5151 7.16034 83.4483
lradius 41.598
lwrist 6.49317
lhand -8.85993 -17.3285
lfingers 7.12502
lthumb 17.0813 11.9406
rfemur 0 0 0
rtibia 0
rfoot 0 0
rtoes 0
lfemur -1.55849 -7.98751 -13.9502
ltibia 19.9194
lfoot -22.8251 12.8353
ltoes -56.011
616
root -0.784813 18.6328 6.00385 -0.0484588 -0.0495792 -0.348396
lowerback 3.00429 0.0829012 -1.77606
upperback -1.42998 0.0370785 0.108426
thorax -3.15627 0.0565583 1.10526
lowerneck -11.1251 -1.12077 -1.764
upperneck 21.6032 -1.60103 1.75137
head 8.58638 -0.72046 0.715627
rclavicle 1.22159e-014 3.97569e-015
rhumerus -55.3018 -19.9647 -77.3701
rradius 41.4192
rwrist 7.40405
rhand -2.81438 -34.7414
rfingers 7.12502
rthumb 22.8921 -423.403
lclavicle 1.22159e-014 3.97569e-015
lhumerus -51.4758 8.71355 82.8678
lradius 40.5008
lwrist 5.34173
lhand -8.8684 -17.2647
lfingers 7.12502
lthumb 17.0731 12.0051
rfemur 0 0 0
rtibia 0
rfoot 0 0
rtoes 0
lfemur -1.52918 -8.03626 -14.0602
ltibia 19.846
lfoot -22.9296 13.0222
ltoes -55.8827
617
root -0.774038 18.6338 5.99776 -0.00566871 -0.323761 -0.301629
lowerback 2.93173 0.143862 -1.72744
upperback -1.45971 0.121687 0.108992
thorax -3.14859 0.0978383 1.07382
lowerneck -11.1217 -1.144 -1.70788
upperneck 21.7406 -1.67135 1.85456
head 8.63423 -0.738379 0.733714
rclavicle 6.05051e-015 5.96354e-016
rhumerus -54.7144 -20.0284 -76.998
rradius 39.6497
rwrist 10.7785
rhand -2.67414 -34.7933
rfingers 7.12502
rthumb 23.0267 -423.438
lclavicle 6.05051e-015 5.96354e-016
lhumerus -51.3203 10.0471 82.293
lradius 39.4625
lwrist 3.84489
lhand -8.42349 -17.2677
lfingers 7.12502
lthumb 17.5013 11.9645
rfemur 0 0 0
rtibia 0
rfoot 0 0
rtoes 0
lfemur -1.50947 -7.93245 -14.1552
ltibia 19.7946
lfoot -22.9909 13.1117
ltoes -55.8322
618
root -0.762986 18.635 5.99183 0.0219957 -0.574643 -0.273718
lowerback 2.8453 0.198936 -1.64534
upperback -1.46187 0.199824 0.0943991
thorax -3.10407 0.134549 1.00856
lowerneck -11.0728 -1.15529 -1.58444
upperneck 21.7361 -1.72804 1.91793
head 8.62418 -0.748984 0.728419
rclavicle -6.358e-015 3.57812e-015
rhumerus -54.0989 -19.8036 -76.8617
rradius 38.3946
rwrist 13.0839
rhand -2.68369 -35.5199
rfingers 7.12502
rthumb 23.0175 -424.165
lclavicle -6.358e-015 3.57812e-015
lhumerus -51.0974 11.1904 81.7905
lradius 38.5597
lwrist 2.11027
lhand -7.53127 -16.9493
lfingers 7.12502
lthumb 18.3598 12.2043
rfemur 0 0 0
rtibia 0
rfoot 0 0
rtoes 0
lfemur -1.49174 -7.77535 -14.2254
ltibia 19.759
lfoot -23.0026 13.1821
ltoes -55.8708
619
root -0.751038 18.6355 5.98506 0.0135427 -0.77156 -0.221538
lowerback 2.81291 0.223415 -1.57189
upperback -1.4451 0.235375 0.0641856
thorax -3.06904 0.150049 0.934472
lowerneck -11.0705 -1.17382 -1.43381
upperneck 21.7125 -1.79253 1.95072
head 8.6159 -0.764047 0.707152
rclavicle -1.55301e-017 -1.09332e-015
rhumerus -53.5505 -19.4045 -76.8046
rradius 37.6762
rwrist 14.9315
rhand -2.64239 -36.0484
rfingers 7.12502
rthumb 23.0571 -424.689
lclavicle -1.55301e-017 -1.09332e-015
lhumerus -50.8201 12.0667 81.4491
lradius 37.7815
lwrist 0.156596
lhand -6.46214 -16.3437
lfingers 7.12502
lthumb 19.388 12.7097
rfemur 0 0 0
rtibia 0
rfoot 0 0
rtoes 0
lfemur -1.44861 -7.73025 -14.3416
ltibia 19.7393
lfoot -23.0633 13.2971
ltoes -55.8521
